<svg
    width="250.00000000000003"
    height="170.01961284315195"
    viewBox="0 0 250.00000000000003 170.01961284315195"
  >
    <g
      id="SvgjsG1117"
      featurekey="symbolFeature-0"
      transform="matrix(2.666704343221357,0,0,2.666704343221357,83.66994829458017,-2.666704343221357)"
      fill="#4ecca3"
    >
      <g xmlns="http://www.w3.org/2000/svg" transform="translate(-30 -200)">
        <g
          xmlns="http://www.w3.org/2000/svg"
          xmlns:xlink="http://www.w3.org/1999/xlink"
        >
          <path
            d="M58.939,214.516c-0.268-1.072-1.354-1.723-2.424-1.455c-0.684,0.171-1.193,0.674-1.404,1.293l-4.195-0.322    c-0.188-1.147-0.697-2.183-1.436-3.014l3.07-2.277c0.342,0.229,0.771,0.322,1.201,0.213c0.803-0.201,1.289-1.018,1.086-1.821    c-0.203-0.802-1.019-1.289-1.822-1.085c-0.803,0.201-1.289,1.018-1.086,1.82c0.006,0.024,0.018,0.046,0.025,0.07l-3.209,2.38    c-0.418-0.335-0.881-0.617-1.381-0.832l1.5-4.499C48.91,204.989,48.953,205,49,205c1.105,0,2-0.895,2-2s-0.895-2-2-2    c-1.104,0-2,0.895-2,2c0,0.703,0.365,1.319,0.914,1.676l-1.498,4.499C45.961,209.064,45.488,209,45,209    c-0.229,0-0.455,0.016-0.678,0.041l-1.824-4.43C42.805,204.337,43,203.943,43,203.5c0-0.828-0.672-1.5-1.5-1.5s-1.5,0.672-1.5,1.5    s0.672,1.5,1.5,1.5c0.025,0,0.049-0.006,0.074-0.008l1.75,4.25c-0.869,0.252-1.652,0.695-2.309,1.281l-1.199-1.318    c0.195-0.361,0.244-0.799,0.094-1.216c-0.281-0.778-1.141-1.182-1.92-0.9c-0.779,0.281-1.182,1.142-0.9,1.921    c0.281,0.778,1.143,1.181,1.92,0.9c0.023-0.009,0.045-0.023,0.066-0.031l1.246,1.369c-0.613,0.763-1.039,1.678-1.221,2.68    l-3.139-0.264c-0.008-0.045-0.008-0.09-0.018-0.135c-0.26-1.074-1.342-1.733-2.414-1.473c-1.074,0.26-1.734,1.341-1.475,2.414    c0.262,1.074,1.342,1.732,2.416,1.473c0.684-0.166,1.195-0.666,1.414-1.283l3.117,0.263c0,0.026-0.004,0.052-0.004,0.077    c0,1.441,0.51,2.764,1.357,3.799l-4.613,3.618c-0.035-0.027-0.066-0.06-0.105-0.085c-0.92-0.609-2.162-0.355-2.77,0.566    c-0.609,0.921-0.355,2.163,0.566,2.77c0.922,0.609,2.162,0.355,2.771-0.566c0.387-0.586,0.422-1.302,0.16-1.902l4.693-3.682    c0.447,0.391,0.951,0.717,1.502,0.962l-1.018,2.593c-0.41-0.013-0.822,0.129-1.129,0.449c-0.572,0.596-0.553,1.547,0.047,2.119    c0.598,0.574,1.547,0.553,2.121-0.045c0.572-0.598,0.551-1.548-0.047-2.12c-0.018-0.018-0.041-0.023-0.061-0.038l1.031-2.632    C43.986,220.928,44.484,221,45,221c0.439,0,0.867-0.05,1.279-0.14l0.547,4.306c-0.367,0.186-0.658,0.515-0.773,0.942    c-0.217,0.799,0.256,1.623,1.057,1.839c0.799,0.217,1.623-0.257,1.838-1.057c0.217-0.799-0.258-1.623-1.057-1.839    c-0.023-0.007-0.047-0.007-0.072-0.012l-0.57-4.479c0.906-0.367,1.701-0.946,2.324-1.68l2.766,3.066    c-0.025,0.038-0.055,0.07-0.078,0.111c-0.545,0.961-0.205,2.182,0.756,2.725c0.961,0.545,2.182,0.206,2.725-0.756    c0.545-0.961,0.207-2.181-0.756-2.725c-0.611-0.347-1.328-0.332-1.908-0.03l-2.912-3.228c0.521-0.883,0.826-1.906,0.834-3.005    l4.043,0.312c0.008,0.045,0.008,0.089,0.02,0.134c0.268,1.071,1.354,1.724,2.424,1.456    C58.557,216.673,59.209,215.587,58.939,214.516z M42.5,215c-0.828,0-1.5-0.672-1.5-1.5s0.672-1.5,1.5-1.5s1.5,0.672,1.5,1.5    S43.328,215,42.5,215z M46,219c-1.104,0-2-0.895-2-2s0.896-2,2-2c1.105,0,2,0.895,2,2S47.105,219,46,219z M47,213    c-0.553,0-1-0.447-1-1s0.447-1,1-1s1,0.447,1,1S47.553,213,47,213z"
          ></path>
        </g>
      </g>
    </g>
    <g
      id="SvgjsG1118"
      featurekey="nameFeature-0"
      transform="matrix(1.4860361219971805,0,0,1.4860361219971805,-2.9720715353971197,77.49629277795877)"
      fill="#393e46"
    >
      <path
        d="M23.08 17.36 c0.84 2.48 1.04 5.16 1.04 7.8 c0 2.2 -0.4 4.32 -0.96 6.44 c-0.72 2.52 -1.92 4.8 -4.08 6.28 c-1.6 1.16 -3.28 1.92 -5.24 2.12 c-0.28 0 -0.52 0.04 -0.8 0.04 c-0.24 0 -0.48 -0.04 -0.76 -0.04 c-1.96 -0.2 -3.64 -0.96 -5.28 -2.12 c-2.12 -1.48 -3.36 -3.76 -4.04 -6.28 c-0.6 -2.12 -0.96 -4.24 -0.96 -6.44 c0 -2.64 0.2 -5.32 1.04 -7.8 c1.48 -4.28 5.56 -7.32 10 -7.4 c4.44 0.08 8.52 3.12 10.04 7.4 z M19.2 28.08 c0.4 -2.44 0.24 -4.92 -0.24 -7.36 c-0.48 -2.2 -1.44 -4.36 -3.28 -5.68 c-0.32 -0.24 -0.68 -0.44 -1.04 -0.56 c-0.52 -0.24 -1.08 -0.32 -1.6 -0.32 s-1.04 0.08 -1.56 0.32 c-0.4 0.12 -0.72 0.32 -1.04 0.56 c-1.88 1.32 -2.84 3.48 -3.28 5.68 c-0.48 2.44 -0.64 4.92 -0.24 7.36 c0.4 2.2 1.2 5.16 3.28 6.28 c0.88 0.48 1.84 0.8 2.84 0.84 c1 -0.04 2 -0.36 2.88 -0.84 c2.08 -1.12 2.88 -4.08 3.28 -6.28 z M28.862000000000002 16.56 c0 4.04 0.04 8.12 0.12 12.12 c0.04 2.44 0 5.2 1.16 7.44 c1.48 2.88 4.76 4.16 7.92 3.96 c2.16 -0.16 4.16 -0.72 5.72 -2.32 c2.64 -2.84 2.12 -7.28 2.16 -10.92 c0.08 -5.24 0.2 -10.12 0.2 -15.4 c0 -0.88 -0.28 -1.36 -1.16 -1.4 c-1.08 -0.04 -2.16 0 -3.24 0.08 c-0.44 0 -0.8 0.4 -0.8 0.88 c0.04 3.84 0.12 7.72 0.08 11.6 c-0.04 3.32 0.4 7 -0.84 10.16 c-0.48 1.16 -1.56 2.04 -2.84 2.04 c-3.2 -0.08 -3.08 -3.88 -3.2 -6.12 c-0.24 -4.88 0.12 -9.88 0.24 -14.76 c0 -0.92 0 -1.84 0.04 -2.76 c0.04 -0.48 0.12 -1.08 -0.52 -1.12 l-0.72 0 c-1 0.08 -2 -0.04 -3 0 c-0.96 0.08 -1.28 0.36 -1.28 1.32 c0 1.72 -0.04 3.48 -0.04 5.2 z M55.964 35.64 c0.04 1.24 0.04 2.48 0.08 3.72 c0 0.56 0.04 0.64 0.6 0.64 l3.6 0 c0.76 0 0.6 -1.28 0.56 -1.96 l0.12 -22.4 c0 -0.6 0.2 -0.8 1 -0.8 l3.52 0 c0.84 0 0.64 -1.44 0.64 -2.44 c0 -0.88 0.32 -2.4 -0.64 -2.4 c-0.68 0 -7.2 0 -9.88 0.04 c-1.32 0 -2.4 -0.04 -3.72 -0.04 c-1 0 -0.96 0.8 -0.96 2.56 c0 1.12 -0.04 2.24 0.92 2.24 c0.56 0 2.84 0 3.48 0.04 c0.4 0 0.68 0.12 0.76 0.56 c0 0.12 0.04 0.24 0.04 0.36 c0 2.88 -0.2 16.28 -0.12 19.88 z M70.906 13.079999999999998 c0 1.92 -0.08 22.56 0 24.4 c0.04 0.44 0.04 0.88 0.04 1.32 c0 0.32 0.2 0.52 0.48 0.64 c0.24 0.08 0.56 0.16 0.8 0.16 c1.16 -0.12 2.4 0 3.6 -0.04 c2.08 0.16 3.96 -0.32 5.76 -1.28 c1.68 -0.96 2.6 -2.68 3.24 -4.48 c0.52 -1.52 0.44 -3.32 0.16 -4.88 c-0.24 -1.4 -0.88 -2.76 -1.72 -3.88 c-0.12 -0.16 -1.84 -1.24 -1.76 -1.32 c1.04 -1.48 2.52 -2.72 2.72 -4.56 c0.16 -1.6 -0.2 -3.24 -0.76 -4.72 c-0.36 -0.96 -0.84 -1.88 -1.6 -2.6 c-1.28 -1.2 -3.2 -1.72 -4.88 -1.88 c-1.72 -0.16 -3.32 -0.04 -5.04 -0.12 c-0.6 0 -0.88 0.24 -0.88 0.88 c0 0.84 -0.16 1.52 -0.16 2.36 z M75.826 20.36 c-0.04 -0.44 0 -3.96 -0.08 -5.28 c-0.04 -0.48 0.24 -0.72 0.76 -0.6 c0.4 0.08 0.72 0.12 1.04 0.36 c1 0.76 1.76 1.68 1.8 2.96 c0 0.64 0 1.28 -0.24 1.88 c-0.28 0.72 -0.68 1.28 -1.4 1.64 c-0.48 0.24 -0.92 0.52 -1.4 0.72 c-0.24 0.08 -0.48 -0.04 -0.52 -0.28 c0 -0.48 0.04 -1.4 0.04 -1.4 z M79.826 30.96 c0 0.2 -0.04 0.56 -0.04 0.92 c-0.04 1.2 -1.6 2.72 -3.4 2.76 c-0.12 0 -0.32 -0.12 -0.36 -0.24 c-0.08 -0.24 -0.16 -0.52 -0.16 -0.8 c-0.04 -1.24 0 -2.44 0 -3.76 c0.12 -0.84 0.04 -1.72 0.04 -2.6 c0.04 -0.68 0.2 -0.8 0.84 -0.92 c0.96 -0.12 1.84 0.28 2.28 1.04 c0.52 0.92 0.72 1.92 0.8 2.96 l0 0.64 z M94.928 37 c0 -1.04 0 -7.6 0.04 -8.12 c0.04 -0.12 0.12 -0.36 0.28 -0.36 s0.24 0.08 0.28 0.2 c1.6 3.12 3 6.24 4.44 9.28 c0.2 0.44 0.64 1.72 0.76 1.84 c0.16 0.24 0.44 0.16 0.68 0.16 l4.4 0.04 c0.52 0 0.64 -0.32 0.52 -0.76 c-0.32 -1.2 -2.6 -5.44 -3.12 -6.48 c-0.36 -0.8 -2.76 -5.44 -2.84 -5.8 c-0.08 -0.16 0.52 -0.44 0.6 -0.56 c1.92 -1.72 3.64 -3.48 4 -6.16 c0.4 -2.64 -0.2 -5.52 -1.92 -7.64 c-1.32 -1.56 -3.04 -2.48 -5.08 -2.6 c-1.24 -0.08 -2.44 0.04 -3.68 0 c-1.08 -0.04 -1.84 -0.04 -3.2 -0.04 c-0.64 0 -1.04 0.36 -1.08 1.04 l0 0.48 c-0.08 3.08 0 6.16 0.04 9.2 c0 4.64 -0.08 16.88 -0.08 18.64 c0 0.52 0.08 0.64 0.56 0.64 c0.28 0 0.6 0.04 0.88 0.04 c1.12 0 1.8 -0.04 2.96 -0.04 c0.88 0 0.56 -1.44 0.56 -3 z M94.928 21.4 l0.04 -4.04 c0.04 -0.6 -0.16 -1.8 0.4 -2.24 c0.76 -0.56 2.32 0 3 0.48 c2 1.36 1.84 4.72 0.76 6.6 c-0.52 0.88 -1.4 1.4 -2.4 1.68 c-0.6 0.16 -1.72 0.36 -1.76 -0.6 c0 -0.64 -0.04 -1.88 -0.04 -1.88 z M111.15000000000002 31.8 l-0.04 0 c0 1 -0.04 2.04 0 3.08 c0.04 1.28 0.12 2.56 0.2 3.84 c0 0.44 0.12 0.56 0.52 0.64 c0.84 0.2 1.64 0.24 2.48 0.24 c2.16 -0.08 4.32 0.08 6.48 0 c0.88 -0.04 1.28 0.04 2.16 -0.12 c0.8 -0.16 1.08 -0.6 1.08 -1.8 c-0.08 -0.76 -0.04 -1.08 -0.04 -2 c0 -1.32 -0.92 -1.76 -1.72 -1.72 c-0.56 0.04 -3.24 -0.04 -4.32 -0.04 c-1.8 0.04 -1.52 0.28 -1.52 -1.6 c0 -1.52 0.04 -3.48 0.04 -5.04 c0 -0.84 0.08 -1.12 0.88 -1.12 l5 0 c0.8 0.12 1.36 -0.44 1.36 -1.28 s0.08 -0.88 0.08 -1.72 l-0.12 -1.2 c-0.08 -0.68 -0.32 -0.92 -1 -0.92 c-0.44 0 -0.88 0.04 -1.32 0.08 c-1.72 0.12 -2.52 -0.12 -4.2 0 c-0.56 0 -0.64 -0.08 -0.68 -0.6 c-0.16 -1.56 0 -3.28 0.16 -4.84 c0.04 -0.64 0.2 -0.76 0.8 -0.8 l5.64 -0.04 c0.76 -0.08 1 -0.04 0.96 -0.8 c-0.08 -1.16 0.04 -2.36 -0.08 -3.52 c-0.08 -0.64 -0.28 -0.76 -1 -0.76 c-1.2 0.04 -1.48 0.04 -2.68 0.12 c-1.2 0.04 -6 0.04 -7.16 0.04 c-1.68 0 -1.8 -0.12 -1.84 1.92 c-0.08 1.6 -0.04 3.24 -0.04 4.88 c0 2.8 -0.16 12.84 -0.08 15.08 z M132.45200000000003 39.68 c0.12 0.04 0.48 0.04 0.84 0.04 c0.8 0 1.04 -2.88 1.12 -3.48 c0.04 -0.48 0.16 -0.52 0.56 -0.6 c2 -0.24 3 -0.08 5 -0.04 c0.44 0 0.68 0.2 0.8 0.56 l0.28 0.92 c0.24 0.68 0.44 1.52 0.68 2.2 c0.16 0.48 0.2 0.44 0.68 0.44 c0.64 0 2.96 0 3.64 -0.04 c0.92 0 0.28 -1.88 0.16 -2.2 c-0.36 -1.12 -0.44 -2.28 -0.8 -3.4 c-0.16 -0.48 -4.72 -22.12 -4.92 -23.32 c-0.28 -0.72 -0.04 -0.76 -0.68 -0.76 c-1.36 0 -2.8 0.08 -4.2 0 c-0.56 0 -0.52 0.16 -0.6 0.76 c-0.08 0.56 -1.52 6.92 -2.08 9.56 c-0.72 3.32 -1.36 6.52 -2.16 9.8 c-0.28 1.16 -2.2 9.52 -1.96 9.56 c0.12 0.08 0.32 0.04 0.48 0.04 c1 0 1.92 0 3.16 -0.04 z M137.692 30.6 l-0.84 0 c-1.12 0 -1.16 0 -0.88 -1.16 c0.2 -0.88 1.28 -5.64 1.52 -6.8 c0.04 -0.08 0.12 -0.16 0.16 -0.16 c0.08 0 0.16 0.08 0.2 0.12 c0.16 0.48 0.32 1.68 0.48 2.16 c0.36 1.52 0.6 2.8 0.96 4.44 c0.36 1.44 0.2 1.44 -0.52 1.44 c-0.36 0 -0.72 -0.04 -1.08 -0.04 z M156.71400000000003 32.76 c0 -1.4 -0.2 -5.2 -0.16 -6 c0 -0.12 0.08 -0.28 0.12 -0.28 c0.08 0 0.24 0.08 0.28 0.12 c1.28 1.68 7.28 13.32 8 13.36 c0.2 0.04 0.4 0.04 0.6 0.04 c1.36 -0.08 2.56 0 3.92 0 c1.4 0 0.48 -1.36 0.24 -1.72 c-0.36 -0.52 -5.12 -9.04 -5.4 -9.56 c-0.8 -1.36 -1.48 -2.84 -2.28 -4.16 c-0.08 -0.16 -0.16 -0.4 -0.12 -0.56 c0.08 -0.48 0.2 -0.92 0.4 -1.36 c0.96 -1.88 1.96 -3.8 3.12 -5.6 c1.28 -2.04 2 -3.32 3.04 -5.16 c0.24 -0.44 0.4 -0.92 0.56 -1.44 c0.04 -0.2 -0.12 -0.4 -0.36 -0.4 c-0.76 -0.04 -3.52 0 -4.4 0 c-0.4 0 -0.8 0.08 -1 0.44 c-0.52 1 -5.88 10.8 -6.4 11.68 c-0.04 0.08 -0.16 0.12 -0.28 0.12 c0 0 -0.08 -0.12 -0.08 -0.2 c-0.04 -2.24 0.36 -9.56 0.28 -11.04 c-0.04 -0.88 -0.2 -0.96 -1.08 -1 c-0.96 -0.04 -2.28 -0.04 -3.24 -0.04 c-0.88 0 -0.96 0.48 -1.08 1.12 c-0.04 0.12 -0.04 3.88 -0.04 5.56 c0 2.44 -0.2 17.72 0.08 22.56 c0 0.48 0.12 0.76 0.52 0.76 c1.08 -0.08 2.68 0 3.76 0 c0.76 0 0.88 -0.08 0.88 -1.36 c0 -1.72 0.16 -3.28 0.16 -5.4 c0 -0.16 -0.04 -0.32 -0.04 -0.48 z"
      ></path>
    </g>
    <g
      id="SvgjsG1119"
      featurekey="sloganFeature-0"
      transform="matrix(1.5659599760829457,0,0,1.5659599760829457,28.999999626646048,138.4498599642663)"
      fill="#4ecca3"
    >
      <path
        d="M5.32 20 l-0.72 -4.94 l-2.02 0 l-0.66 4.94 l-1.92 0 l2.16 -14.3 l2.58 0 l2.5 14.3 l-1.92 0 z M2.84 13.16 l1.48 0 l-0.76 -5.2 z M16.201 19.96 c-1.48 0 -2.68 -1.2 -2.68 -2.68 l0 -8.88 c0 -1.48 1.2 -2.68 2.68 -2.68 s2.68 1.2 2.68 2.68 l0 0.8 l-1.9 0 l0 -0.8 c0 -0.42 -0.36 -0.78 -0.78 -0.78 s-0.78 0.36 -0.78 0.78 l0 8.88 c0 0.42 0.36 0.78 0.78 0.78 s0.78 -0.36 0.78 -0.78 l0 -1.28 l1.9 0 l0 1.28 c0 1.48 -1.2 2.68 -2.68 2.68 z M23.221500000000002 20.02 c-1.5 0 -2.7 -1.22 -2.7 -2.7 l0 -8.98 c0 -1.48 1.2 -2.68 2.7 -2.68 c1.48 0 2.68 1.2 2.68 2.68 l0 8.98 c0 1.48 -1.2 2.7 -2.68 2.7 z M23.221500000000002 7.5600000000000005 c-0.44 0 -0.78 0.36 -0.78 0.78 l0 8.98 c0 0.44 0.34 0.78 0.78 0.78 c0.42 0 0.78 -0.34 0.78 -0.78 l0 -8.98 c0 -0.42 -0.36 -0.78 -0.78 -0.78 z M31.102 20 l-1.98 0 l-2 -14.28 l1.92 0 l1.04 7.36 l0.96 -7.36 l1.92 0 z M36.5025 5.68 l0 14.24 l-1.9 0 l0 -14.24 l1.9 0 z M40.643 20.02 l-2.5 0 l0 -14.26 l2.5 0 c1.7 0 3.06 1.38 3.06 3.08 l0 8.1 c0 0.82 -0.32 1.6 -0.9 2.18 s-1.34 0.9 -2.16 0.9 z M40.043 7.68 l0 10.42 l0.6 0 c0.3 0 0.6 -0.12 0.82 -0.34 s0.34 -0.5 0.34 -0.82 l0 -8.1 c0 -0.64 -0.52 -1.16 -1.16 -1.16 l-0.6 0 z M54.644000000000005 11.52 c0.44 0.44 0.72 1.04 0.72 1.7 l0 4.38 c0 1.32 -1.08 2.4 -2.4 2.4 l-2.96 0 l-0.02 -14.24 l2.64 0 c1.46 0.06 2.32 1.46 2.3 2.78 l-0.02 1.98 c0 0.36 -0.1 0.7 -0.26 1 z M52.964 18.08 c0.28 0 0.5 -0.22 0.5 -0.48 l-0.02 -4.38 c0 -0.28 -0.22 -0.48 -0.48 -0.48 l-1.06 0 l0 5.34 l1.06 0 z M51.884 7.66 l0 3.16 l0.8 0 c0.16 0 0.32 -0.14 0.32 -0.32 l0.02 -1.98 c0 -0.4 -0.2 -0.84 -0.48 -0.86 l-0.66 0 z M59.7045 20.02 c-1.5 0 -2.7 -1.22 -2.7 -2.7 l0 -8.98 c0 -1.48 1.2 -2.68 2.7 -2.68 c1.48 0 2.68 1.2 2.68 2.68 l0 8.98 c0 1.48 -1.2 2.7 -2.68 2.7 z M59.7045 7.5600000000000005 c-0.44 0 -0.78 0.36 -0.78 0.78 l0 8.98 c0 0.44 0.34 0.78 0.78 0.78 c0.42 0 0.78 -0.34 0.78 -0.78 l0 -8.98 c0 -0.42 -0.36 -0.78 -0.78 -0.78 z M69.345 20 l-0.72 -4.94 l-2.02 0 l-0.66 4.94 l-1.92 0 l2.16 -14.3 l2.58 0 l2.5 14.3 l-1.92 0 z M66.86500000000001 13.16 l1.48 0 l-0.76 -5.2 z M78.1055 20.04 l-2.04 0 l-1.1 -3.02 l-0.44 0 l0 3.02 l-1.9 0 l0 -14.32 l2.98 0 c1.32 0 2.38 1.06 2.38 2.38 l0 6.54 c0 0.86 -0.44 1.6 -1.12 2.02 z M74.52550000000001 7.619999999999999 l0 7.5 l1.08 0 c0.26 0 0.48 -0.22 0.48 -0.48 l0 -6.54 c0 -0.26 -0.22 -0.48 -0.48 -0.48 l-1.08 0 z M82.24600000000001 20.02 l-2.5 0 l0 -14.26 l2.5 0 c1.7 0 3.06 1.38 3.06 3.08 l0 8.1 c0 0.82 -0.32 1.6 -0.9 2.18 s-1.34 0.9 -2.16 0.9 z M81.64600000000002 7.68 l0 10.42 l0.6 0 c0.3 0 0.6 -0.12 0.82 -0.34 s0.34 -0.5 0.34 -0.82 l0 -8.1 c0 -0.64 -0.52 -1.16 -1.16 -1.16 l-0.6 0 z M94.54700000000001 20.16 l-0.44 0 c-1.4 0 -2.52 -1.12 -2.52 -2.52 l0 -9.64 c0 -1.4 1.12 -2.54 2.52 -2.54 l0.44 0 c1.4 0 2.52 1.14 2.52 2.54 l0 1.02 l-1.96 0 l0 -1.02 c0 -0.34 -0.24 -0.58 -0.56 -0.58 l-0.44 0 c-0.3 0 -0.58 0.24 -0.58 0.58 l0 9.64 c0 0.3 0.28 0.58 0.58 0.58 l0.44 0 c0.32 0 0.56 -0.28 0.56 -0.58 l0 -5.2 l-1.12 0 l0 -1.94 l3.08 0 l0 7.14 c0 1.4 -1.12 2.52 -2.52 2.52 z M103.90750000000003 20 l-0.72 -4.94 l-2.02 0 l-0.66 4.94 l-1.92 0 l2.16 -14.3 l2.58 0 l2.5 14.3 l-1.92 0 z M101.42750000000002 13.16 l1.48 0 l-0.76 -5.2 z M112.94800000000002 5.68 l3.34 0 l0 14.28 l-1.88 0 l0 -11.3 l-1.78 11.34 l-0.74 0 l-0.18 -0.04 l-0.16 0.04 l-0.74 0 l-1.76 -11.34 l0 11.3 l-1.9 0 l0 -14.28 l3.36 0 l1.22 8.08 z M122.58850000000002 12.46 l-2.76 0 l0 5.64 l2.78 0 l0 1.9 l-4.68 0 l0 -14.28 l4.68 0 l0 1.9 l-2.78 0 l0 2.94 l2.76 0 l0 1.9 z"
      ></path>
    </g>
  </svg>